HIERARCHY
ROOT Hips
{
  OFFSET 50.017 100.668 13.9417
  CHANNELS 6 Xposition Yposition Zposition Zrotation Xrotation Yrotation
  JOINT spine
  {
    OFFSET 0 8.81705 0.507024
    CHANNELS 3 Zrotation Xrotation Yrotation
    JOINT spine1
    {
      OFFSET 0 10.7766 0
      CHANNELS 3 Zrotation Xrotation Yrotation
      JOINT spine2
      {
        OFFSET 0 10.3259 0
        CHANNELS 3 Zrotation Xrotation Yrotation
        JOINT Neck
        {
          OFFSET 0 26.511 1.26395
          CHANNELS 3 Zrotation Xrotation Yrotation
          JOINT Head
          {
            OFFSET 0 8.00966 0
            CHANNELS 3 Zrotation Xrotation Yrotation
            End Site
            {
              OFFSET 0 19.3879 -6.39386
            }
          }
        }
        JOINT RightShoulder
        {
          OFFSET -4.34795 11.1512 -0.605422
          CHANNELS 3 Zrotation Xrotation Yrotation
          JOINT RightArm
          {
            OFFSET 0 14.6258 0
            CHANNELS 3 Zrotation Xrotation Yrotation
            JOINT RightArmRoll
            {
              OFFSET 0 7.3834 0
              CHANNELS 3 Zrotation Xrotation Yrotation
              JOINT RightForeArm
              {
                OFFSET 0 21.5052 0
                CHANNELS 3 Zrotation Xrotation Yrotation
                JOINT RightForeArmRoll
                {
                  OFFSET 0 8.28532 0
                  CHANNELS 3 Zrotation Xrotation Yrotation
                  JOINT RightHand
                  {
                    OFFSET 0 16.6268 0
                    CHANNELS 3 Zrotation Xrotation Yrotation
                    End Site
                    {
                      OFFSET 0 0 0
                    }
                  }
                }
              }
            }
          }
        }
        JOINT LeftShoulder
        {
          OFFSET 4.34795 11.1512 -0.605422
          CHANNELS 3 Zrotation Xrotation Yrotation
          JOINT LeftArm
          {
            OFFSET 0 14.6258 0
            CHANNELS 3 Zrotation Xrotation Yrotation
            JOINT LeftArmRoll
            {
              OFFSET 0 7.3834 0
              CHANNELS 3 Zrotation Xrotation Yrotation
              JOINT LeftForeArm
              {
                OFFSET 0 21.5052 0
                CHANNELS 3 Zrotation Xrotation Yrotation
                JOINT LeftForeArmRoll
                {
                  OFFSET 0 8.28532 0
                  CHANNELS 3 Zrotation Xrotation Yrotation
                  JOINT LeftHand
                  {
                    OFFSET 0 16.6268 0
                    CHANNELS 3 Zrotation Xrotation Yrotation
                    End Site
                    {
                      OFFSET 0 0 0
                    }
                  }
                }
              }
            }
          }
        }
      }
    }
  }
  JOINT RightUpLeg
  {
    OFFSET -7.8151 -1.43309 -1.20217
    CHANNELS 3 Zrotation Xrotation Yrotation
    JOINT RightUpLegRoll
    {
      OFFSET 0 19.4959 0
      CHANNELS 3 Zrotation Xrotation Yrotation
      JOINT RightLeg
      {
        OFFSET 0 -24.1427 0
        CHANNELS 3 Zrotation Xrotation Yrotation
        JOINT RightLegRoll
        {
          OFFSET 0 24.2217 0
          CHANNELS 3 Zrotation Xrotation Yrotation
          JOINT RightFoot
          {
            OFFSET 0 20.1605 0
            CHANNELS 3 Zrotation Xrotation Yrotation
            JOINT RightToeBase
            {
              OFFSET 0 16.8532 0
              CHANNELS 3 Zrotation Xrotation Yrotation
              End Site
              {
                OFFSET 0.00714343 8.16187 -0.94078
              }
            }
          }
        }
      }
    }
  }
  JOINT LeftUpLeg
  {
    OFFSET 7.8151 -1.43309 -1.20217
    CHANNELS 3 Zrotation Xrotation Yrotation
    JOINT LeftUpLegRoll
    {
      OFFSET 0 19.496 0
      CHANNELS 3 Zrotation Xrotation Yrotation
      JOINT LeftLeg
      {
        OFFSET 0 24.1426 0
        CHANNELS 3 Zrotation Xrotation Yrotation
        JOINT LeftLegRoll
        {
          OFFSET 0 24.4456 0
          CHANNELS 3 Zrotation Xrotation Yrotation
          JOINT LeftFoot
          {
            OFFSET 0 19.9366 0
            CHANNELS 3 Zrotation Xrotation Yrotation
            JOINT LeftToeBase
            {
              OFFSET 0 16.8532 0
              CHANNELS 3 Zrotation Xrotation Yrotation
              End Site
              {
                OFFSET -0.0320138 8.16186 -0.940781
              }
            }
          }
        }
      }
    }
  }
}
MOTION
Frames: 6
Frame Time: 0.00208333
50.1398 100.645 13.6011 -0.217223 -2.63536 3.55176 0.10027 -2.01956 -0.1287 0.196816 -0.0365243 -0.258244 0.200727 1.60854 -0.261608 -2.34338 26.461 1.28288 -3.8541 6.74738 0.265951 66.5652 -3.32843 -2.72051 104.929 14.9938 13.9088 2.14687e-014 -6.36111e-015 6.36111e-015 13.618 1.77985 -0.414559 -6.379e-006 -1.04733e-006 -3.01451 8.02889 -4.95147 0.697685 -61.8111 -3.39019 2.37454 -110.937 15.1039 -3.62882 -1.6826e-006 7.29308e-007 1.19694e-006 -12.0907 3.36974 0.770202 -4.9581e-006 -2.91114e-006 3 -8.02887 -4.95149 -0.697697 178.636 -1.57679 -0.557683 180 7.01544e-015 178.908 178.676 5.37212 179.703 -3.64242e-006 -1.1545e-006 0.0333674 -18.21 67.3871 19.0298 8.13649 25.2327 -3.48774 -176.403 -0.128153 1.75598 4.54188e-006 -4.6773e-006 -1.11361 -2.32579 -8.02207 0.163183 -1.37099e-006 -3.52311e-006 -0.147791 19.6162 69.0993 -20.4822 -8.12714 25.2357 3.48024 
50.1472 100.648 13.6055 -0.219061 -2.63247 3.54907 0.10027 -2.02023 -0.128692 0.196818 -0.037867 -0.259836 0.200732 1.60719 -0.263195 -2.34602 26.456 1.28339 -3.85558 6.75005 0.265642 66.5663 -3.33119 -2.72201 104.916 14.9714 13.9424 -1.19271e-014 0 -0 13.5975 1.80516 -0.419783 -6.379e-006 -1.04733e-006 -3.01451 8.02889 -4.95147 0.697685 -61.8141 -3.38669 2.37272 -110.935 15.1058 -3.62221 -1.6826e-006 7.29308e-007 1.19694e-006 -12.096 3.37001 0.770593 -4.9581e-006 -2.91114e-006 3 -8.02887 -4.95149 -0.697697 178.638 -1.56969 -0.560096 180 7.01544e-015 178.908 178.678 5.37462 179.703 -3.64242e-006 -1.1545e-006 0.0333674 -18.209 67.3858 19.0287 8.13649 25.2327 -3.48774 -176.401 -0.112387 1.75786 4.54188e-006 -4.6773e-006 -1.11361 -2.32203 -8.04401 0.163452 -1.37099e-006 -3.52311e-006 -0.147786 19.625 69.1086 -20.4915 -8.12714 25.2357 3.48024 
50.1479 100.649 13.6028 -0.220969 -2.62957 3.54648 0.10027 -2.02091 -0.128683 0.196822 -0.0392231 -0.261481 0.20074 1.60584 -0.264835 -2.34886 26.4508 1.28396 -3.85692 6.75292 0.265321 66.5673 -3.33394 -2.72349 104.903 14.949 13.9755 7.95139e-016 -3.18055e-015 3.18055e-015 13.5773 1.83009 -0.424978 -6.379e-006 -1.04733e-006 -3.01451 8.02889 -4.95147 0.697685 -61.8172 -3.38318 2.37091 -110.934 15.1076 -3.61543 -1.6826e-006 7.29308e-007 1.19694e-006 -12.1015 3.37044 0.771041 -4.9581e-006 -2.91114e-006 3 -8.02887 -4.95149 -0.697697 178.64 -1.56256 -0.562575 180 7.01544e-015 178.908 178.68 5.37713 179.703 -3.64242e-006 -1.1545e-006 0.0333674 -18.208 67.3846 19.0276 8.13649 25.2327 -3.48774 -176.4 -0.0961947 1.75985 4.54188e-006 -4.6773e-006 -1.11361 -2.31809 -8.06671 0.163737 -1.37099e-006 -3.52311e-006 -0.14778 19.634 69.1184 -20.5013 -8.12714 25.2357 3.48024 
50.143 100.65 13.5953 -0.222926 -2.62666 3.54397 0.10027 -2.02159 -0.128673 0.196826 -0.0405883 -0.263162 0.200748 1.60447 -0.266512 -2.35186 26.4456 1.28455 -3.85816 6.75592 0.264993 66.5683 -3.33668 -2.72496 104.891 14.9268 14.0083 2.38542e-015 3.18055e-015 4.77083e-015 13.5574 1.85476 -0.430152 -6.379e-006 -1.04733e-006 -3.01451 8.02889 -4.95147 0.697685 -61.8205 -3.37966 2.3691 -110.932 15.1093 -3.60854 -1.6826e-006 7.29308e-007 1.19694e-006 -12.1072 3.371 0.771529 -4.9581e-006 -2.91114e-006 3 -8.02887 -4.95149 -0.697697 178.642 -1.5554 -0.565099 180 7.01544e-015 178.908 178.681 5.37963 179.703 -3.64242e-006 -1.1545e-006 0.0333674 -18.207 67.3833 19.0265 8.13649 25.2327 -3.48774 -176.398 -0.0797038 1.76192 4.54188e-006 -4.6773e-006 -1.11361 -2.31402 -8.08995 0.164034 -1.371e-006 -3.52311e-006 -0.147775 19.6434 69.1283 -20.5112 -8.12714 25.2357 3.48024 
50.1403 100.651 13.5999 -0.224911 -2.62375 3.54149 0.10027 -2.02227 -0.128663 0.19683 -0.0419589 -0.264865 0.200758 1.6031 -0.26821 -2.35495 26.4404 1.28517 -3.85934 6.759 0.264661 66.5692 -3.33941 -2.72643 104.879 14.9045 14.0409 1.03368e-014 -3.18055e-015 7.95139e-015 13.5376 1.87929 -0.435316 -6.379e-006 -1.04733e-006 -3.01451 8.02889 -4.95147 0.697685 -61.8238 -3.37613 2.36729 -110.93 15.111 -3.60157 -1.6826e-006 7.29308e-007 1.19694e-006 -12.113 3.37162 0.772039 -4.9581e-006 -2.91114e-006 3 -8.02887 -4.95149 -0.697697 178.644 -1.54824 -0.567649 180 7.01544e-015 178.908 178.683 5.38211 179.703 -3.64242e-006 -1.1545e-006 0.0333674 -18.206 67.382 19.0254 8.13649 25.2327 -3.48774 -176.397 -0.0630422 1.76403 4.54188e-006 -4.6773e-006 -1.11361 -2.30988 -8.11349 0.164337 -1.37099e-006 -3.52311e-006 -0.14777 19.6528 69.1384 -20.5214 -8.12714 25.2357 3.48024 
50.1468 100.647 13.5949 -0.226903 -2.62084 3.53903 0.10027 -2.02296 -0.128653 0.196835 -0.0433308 -0.266573 0.200767 1.60173 -0.269913 -2.35806 26.4352 1.2858 -3.8605 6.76211 0.264327 66.5701 -3.34214 -2.7279 104.866 14.8823 14.0734 -3.97569e-015 3.18055e-015 3.18055e-015 13.5178 1.90377 -0.440477 -6.379e-006 -1.04733e-006 -3.01451 8.02889 -4.95147 0.697685 -61.8271 -3.3726 2.36549 -110.928 15.1126 -3.59459 -1.6826e-006 7.29308e-007 1.19694e-006 -12.1188 3.37226 0.772556 -4.9581e-006 -2.91114e-006 3 -8.02887 -4.95149 -0.697697 178.646 -1.54108 -0.570205 180 7.01544e-015 178.908 178.685 5.3846 179.703 -3.64242e-006 -1.1545e-006 0.0333674 -18.205 67.3807 19.0243 8.13649 25.2327 -3.48774 -176.395 -0.0463381 1.76616 4.54188e-006 -4.6773e-006 -1.11361 -2.30571 -8.1371 0.164643 -1.37099e-006 -3.52311e-006 -0.147765 19.6623 69.1486 -20.5315 -8.12714 25.2357 3.48024 
